<?xml version="1.0" encoding="utf-8"?>
<!-- Generator: Adobe Illustrator 23.0.1, SVG Export Plug-In . SVG Version: 6.00 Build 0)  -->
<svg version="1.1" id="Layer_1" xmlns="http://www.w3.org/2000/svg" xmlns:xlink="http://www.w3.org/1999/xlink" x="0px" y="0px"
	 viewBox="0 0 1024 1024" style="enable-background:new 0 0 1024 1024;" xml:space="preserve">
<style type="text/css">
	.st0{fill:#FFFFFF;}
	.st1{fill:none;}
</style>
<rect class="st0" width="1024" height="1024"/>
<g>
	<g>
		<path class="st1" d="M547.99,460.71h-9.17c-3.2-3.9-7.15-7.33-11.78-10.25c-4.34-2.73-9.32-4.82-14.86-6.25v-36.24
			c0-3.3-2.67-5.97-5.97-5.97h-23.65c-3.3,0-5.97,2.67-5.97,5.97v35.95c-4.44,0.94-8.55,2.22-12.28,3.82
			c-5.32,2.27-9.89,5.21-13.59,8.73c-3.78,3.59-6.71,7.79-8.71,12.5c-1.99,4.68-2.99,9.81-2.99,15.24c0,5.93,0.91,11.26,2.68,15.84
			c1.79,4.63,4.38,8.73,7.68,12.18c3.21,3.35,7.08,6.2,11.5,8.45c4.19,2.14,8.83,3.89,13.78,5.19l29.35,7.91
			c2.41,0.67,4.61,1.56,6.54,2.64c1.68,0.94,3.02,2.07,4.1,3.45c0.72,0.93,1.07,2.15,1.07,3.76c0,3.77-1.35,6.35-4.36,8.36
			c-3.66,2.44-8.95,3.68-15.72,3.68c-7.43,0-12.92-1.31-16.32-3.89c-1.87-1.42-4.36-4.01-4.36-10.07c0-0.57-0.09-1.12-0.26-1.65
			c-0.23-3.09-2.81-5.52-5.95-5.52h-30.13c-3.3,0-5.97,2.67-5.97,5.97v20.65c0,3.3,2.67,5.97,5.97,5.97h10.89
			c2.8,4.3,6.35,8.15,10.58,11.46c4.33,3.39,9.86,5.9,16.5,7.51v33.77c0,3.3,2.67,5.97,5.97,5.97h23.65c3.3,0,5.97-2.67,5.97-5.97
			v-33.77c4.5-1.07,8.73-2.56,12.64-4.43c5.41-2.59,10.13-5.83,14.02-9.64c3.98-3.88,7.1-8.37,9.28-13.33
			c2.21-5.02,3.33-10.49,3.33-16.27c0-5.67-0.95-10.76-2.83-15.14c-1.88-4.38-4.59-8.26-8.05-11.53c-3.31-3.12-7.39-5.88-12.12-8.17
			c-4.46-2.17-9.54-4.12-15.09-5.8l-20.97-6.39c-2.54-0.74-5.19-1.45-7.94-2.15c-2.18-0.55-4.18-1.33-5.96-2.32
			c-1.5-0.83-2.7-1.87-3.68-3.2c-0.86-1.17-1.05-3.08-1.05-4.49c0-2.89,1.2-4.88,4.03-6.63c3.58-2.23,9.22-3.36,16.77-3.36
			c5.96,0,10.68,1.23,14.02,3.66c3.01,2.19,4.72,4.83,5.34,8.27v2.15c0,1.05,0.3,2.04,0.8,2.89c0.35,0.74,0.84,1.41,1.47,1.96
			c1.29,1.13,3.01,1.67,4.71,1.43l2.37-0.31h24.7c3.3,0,5.97-2.67,5.97-5.97v-20.65C553.96,463.38,551.29,460.71,547.99,460.71z"/>
	</g>
	<g>
		<path d="M493.31,705.92c-105.87,0-192.01-86.13-192.01-192c0-105.87,86.13-192.01,192.01-192.01s192,86.13,192,192.01
			C685.32,619.79,599.18,705.92,493.31,705.92z M493.31,358.48c-85.71,0-155.44,69.73-155.44,155.44
			c0,85.71,69.73,155.44,155.44,155.44c85.71,0,155.44-69.73,155.44-155.44C648.75,428.21,579.02,358.48,493.31,358.48z"/>
	</g>
	<g>
		<path d="M553.96,487.32c0,3.3-2.67,5.97-5.97,5.97h-24.7l-2.37,0.31c-1.7,0.23-3.42-0.3-4.71-1.43c-0.63-0.55-1.12-1.22-1.47-1.96
			c-0.51-0.85-0.8-1.84-0.8-2.89v-2.15c-0.63-3.44-2.33-6.08-5.34-8.27c-3.34-2.43-8.06-3.66-14.02-3.66
			c-7.55,0-13.19,1.13-16.77,3.36c-2.82,1.76-4.03,3.74-4.03,6.63c0,1.4,0.18,3.32,1.05,4.49c0.98,1.32,2.18,2.37,3.68,3.2
			c1.78,0.99,3.79,1.77,5.96,2.32c2.75,0.7,5.39,1.42,7.94,2.15l20.97,6.39c5.55,1.68,10.63,3.63,15.09,5.8
			c4.73,2.3,8.8,5.05,12.12,8.17c3.46,3.27,6.17,7.14,8.05,11.53c1.88,4.38,2.83,9.47,2.83,15.14c0,5.77-1.12,11.24-3.33,16.27
			c-2.18,4.96-5.3,9.45-9.28,13.33c-3.89,3.8-8.61,7.04-14.02,9.64c-3.91,1.87-8.14,3.36-12.64,4.43v33.77
			c0,3.3-2.67,5.97-5.97,5.97h-23.65c-3.3,0-5.97-2.67-5.97-5.97v-33.77c-6.63-1.6-12.17-4.12-16.5-7.51
			c-4.23-3.31-7.77-7.16-10.58-11.46h-10.89c-3.3,0-5.97-2.67-5.97-5.97V540.5c0-3.3,2.67-5.97,5.97-5.97h30.13
			c3.15,0,5.73,2.43,5.95,5.52c0.17,0.52,0.26,1.08,0.26,1.65c0,6.06,2.49,8.65,4.36,10.07c3.4,2.58,8.89,3.89,16.32,3.89
			c6.77,0,12.06-1.24,15.72-3.68c3.02-2.01,4.36-4.59,4.36-8.36c0-1.61-0.35-2.84-1.07-3.76c-1.08-1.38-2.41-2.51-4.1-3.45
			c-1.93-1.08-4.14-1.97-6.54-2.64l-29.35-7.91c-4.95-1.3-9.59-3.05-13.78-5.19c-4.42-2.26-8.29-5.1-11.5-8.45
			c-3.3-3.45-5.88-7.54-7.68-12.18c-1.78-4.57-2.68-9.91-2.68-15.84c0-5.43,1.01-10.55,2.99-15.24c2-4.7,4.93-8.91,8.71-12.5
			c3.7-3.52,8.28-6.45,13.59-8.73c3.73-1.6,7.84-2.88,12.28-3.82v-35.95c0-3.3,2.67-5.97,5.97-5.97h23.65c3.3,0,5.97,2.67,5.97,5.97
			v36.24c5.53,1.42,10.52,3.51,14.86,6.25c4.63,2.91,8.58,6.35,11.78,10.25h9.17c3.3,0,5.97,2.67,5.97,5.97V487.32z"/>
	</g>
	<g>
		<path d="M239.64,385.26c-17.44,0.38-31.77,15.09-31.7,32.55c0.07,17.66,14.24,31.86,31.98,32.05
			c17.77,0.19,32.4-13.63,32.94-31.15C273.42,400.53,257.86,384.86,239.64,385.26z"/>
		<path d="M998.41,390.41c-9.85,11.55-21.14,21.21-33.27,27.8c-11.86,6.4-24.96,9.79-36.99,9.87c-6.01,0.04-11.72-0.75-16.77-2.28
			c-1.07-0.32-2.1-0.7-3.11-1.09c-6.49-35.57-18.55-70.18-35.98-102.19c-16.49-30.29-36.99-58.34-61.05-83.06
			c-23.83-24.49-51-45.58-80.22-63.26c-105.66-63.9-242.56-83.22-361.84-51.09c-47.09,12.69-87.78,37.95-129.56,62.23
			c-12.2,7.09-21.44,9.66-35.27,4.27c-42.33-16.49-81.79-11.71-116.61,20.94c14.54,19.45,29.45,37.76,42.21,57.47
			c3.75,5.8,4.25,16.75,1.42,23.24c-13.59,31.2-28.38,61.91-43.89,92.21c-2.97,5.81-11.11,12.75-16.86,12.75
			c-35.94,0-58.66,17.06-70.62,50.08c0,67.04,0,134.08,0,201.13c12.81,36.87,39.35,51.75,77.47,49.5
			c17.45-1.03,35.22-1.79,52.45,0.42c10.76,1.38,22.4,6.56,30.82,13.48c23.44,19.27,45.95,39.77,67.63,61.01
			c6.63,6.49,12.45,16.67,13.27,25.65c1.94,21.14,0.14,42.6,0.78,63.9c0.98,32.03,16.58,47.2,48.16,47.53
			c22.08,0.23,44.17,0.45,66.24-0.16c22.76-0.62,38.21-15.22,40.99-37.75c0.91-7.36,1.13-14.8,1.49-19.77c59.83,0,117.78,0,176.36,0
			c0.25,3.91,0.48,7.63,0.72,11.36c2.3,34.95,17.04,49.02,51.92,49.25c20.56,0.14,41.14,0.63,61.67-0.2
			c2.79-0.11,5.57-0.4,8.32-0.92c13.6-2.54,25.01-10.87,30.19-23.89c3.29-8.26,3.62-17.36,3.57-26.07
			c-0.06-10.47-0.37-20.94-0.38-31.41c-0.01-9.89-0.17-20.08,2.49-29.7c2.79-10.07,9.04-17.66,17.37-23.68
			c49.35-35.57,93.4-79.88,122.68-133.6c10.93-20.04,19.61-41.3,26.07-63.19c9.6-32.57,14.04-66.33,13.52-99.99
			c8.92-1.17,17.39-3.41,25.29-6.43c18.54-7.14,34.18-18.35,46.48-31.99c12.06-13.5,20.6-28.8,26.61-44.31
			c6.02-15.55,9.62-31.41,11.79-47.17C1016.76,365.51,1008.29,378.86,998.41,390.41z M873.67,520.25
			c-3.22,30.62-11.71,60.54-24.87,88.37c-13.48,28.53-31.65,54.65-52.64,78.16c-10.03,11.23-20.7,21.88-31.85,31.99
			c-4.46,4.05-9.2,7.96-14.03,11.86c-10.8,8.71-21.67,17.51-30.98,27.85c-8.86,9.83-16.59,21.5-20.49,34.24
			c-4.34,14.19-4.41,29.22-4.53,43.92c-0.03,3.3,0.51,35.66-0.2,35.66c-26.05,0-50.55,0-77.41,0c0-22.92,0-45.45,0-71.26
			c-85.96,22.83-169.32,23.53-255.45-3.3c0,25.66,0,48.57,0,73.32c-26.97,0-50.88,0-78.79,0c0-29.98,0.74-60.78-0.49-91.51
			c-0.33-8.18-4.72-18.2-10.62-23.8c-31.32-29.7-63.51-58.51-95.94-86.99c-5.56-4.88-13.69-9.28-20.8-9.54
			c-28.9-1.08-57.88-0.9-86.81-0.32c-19.24,0.39-28.17-8.31-28.14-27.23c0.07-55.6,0.04-111.2,0.07-166.8
			c0.01-17.91,9.16-26.48,26.93-26.37c15.2,0.1,30.4,0.02,47.96,0.02c11.3-57.9,34.67-110.05,73.94-155.55
			c-14.23-19.6-27.89-38.41-42.92-59.11c25.2-6.24,45.26,2.13,63.94,13.29c11.5,6.87,18.65,5.66,30.12-1.67
			c55.13-35.2,108.5-66.27,174.15-75.9c69.9-10.25,141.91-5.95,210.08,12.6c54.2,14.75,105.49,43.6,147.1,81.15
			c49.42,44.61,82.39,103.38,96.52,168.31C874.55,453.95,877.14,487.31,873.67,520.25z"/>
	</g>
	<g>
		<path d="M371.3,241.54c-9.82,0-18.89-6.37-21.87-16.25c-3.65-12.08,3.19-24.84,15.27-28.49c15.13-4.57,30.54-8.02,45.79-10.26
			c65.94-9.67,132.36-7.08,197.43,7.68c12.31,2.79,20.02,15.04,17.23,27.35c-2.8,12.31-15.04,20.02-27.35,17.23
			c-59.55-13.51-120.34-15.88-180.69-7.03c-13.21,1.94-26.04,4.81-39.2,8.79C375.72,241.23,373.49,241.54,371.3,241.54z"/>
	</g>
</g>
</svg>
