<?xml version="1.0" encoding="utf-8"?>
<!-- Generator: Adobe Illustrator 16.0.0, SVG Export Plug-In . SVG Version: 6.00 Build 0)  -->
<!DOCTYPE svg PUBLIC "-//W3C//DTD SVG 1.1//EN" "http://www.w3.org/Graphics/SVG/1.1/DTD/svg11.dtd">
<svg version="1.1" id="Layer_1" xmlns="http://www.w3.org/2000/svg" xmlns:xlink="http://www.w3.org/1999/xlink" x="0px" y="0px"
	 width="1024px" height="1024px" viewBox="0 0 1024 1024" enable-background="new 0 0 1024 1024" xml:space="preserve">
<rect fill="none" width="1024" height="1024"/>
<path fill-rule="evenodd" clip-rule="evenodd" fill="#050505" d="M936.193,207.068c-279.642-0.06-561.615-0.065-841.27,0.017
	C36.482,207.107,0,241.706,0,300.261c0,160.799,0,321.605,0,482.41c0,58.3,36.668,92.941,95.099,92.995
	c138.664,0.121,278.495,0.034,417.159,0.044c141.45,0.012,283.476,0.1,424.916-0.044c49.109-0.054,86.564-36.719,86.619-85.539
	c0.185-165.407,0.341-330.815,0.078-496.223C1023.795,242.968,987.31,207.08,936.193,207.068z M931.741,829.152
	c-278.261,0.022-556.521,0.044-834.781,0.033c-31.19,0-43.281-14.407-43.292-45.596C53.636,686.832,56,590.076,56,493.32
	c0-4.559,0-12.32,0-12.32c303,0,612.252,0,920.782,0c0.24,0,0.636,8.111,0.636,12.599c0.044,97.216,0.066,193.656,0.033,290.87
	C977.44,815.8,963.204,829.152,931.741,829.152z M977.44,335c-308.661,0-616.576,0-925.972,0c0-11-0.69-31.78,0.176-47.369
	c1.086-19.371,16.768-33.419,36.41-34.402c8.313-0.416,16.647,0.111,24.961,0.111c272.283-0.011,544.565,0.118,816.85,0.113
	c34.151,0,47.442,12.362,47.575,46.78C977.484,311.706,977.44,324,977.44,335z"/>
<path fill-rule="evenodd" clip-rule="evenodd" fill="#050505" d="M282.299,572.701c-51.445-0.072-93.35,41.179-94.26,92.782
	c-0.889,50.941,40.971,93.751,92.341,94.428c52.64,0.688,94.874-40.294,95.344-92.547
	C376.196,615.121,334.401,572.777,282.299,572.701z"/>
<path fill-rule="evenodd" clip-rule="evenodd" fill="#050505" d="M213.142,578.97c-43.1-14.512-86.44-0.47-110.874,35.223
	c-22.921,33.451-20.596,80.632,5.494,111.831c26.112,31.231,70.145,42.677,104.667,27.23
	C157.288,684.57,157.255,645.588,213.142,578.97z"/>
<path fill-rule="evenodd" clip-rule="evenodd" fill="#050505" d="M561.009,643.435c-31.781-0.252-63.575-0.229-95.368,0.011
	c-15.781,0.131-25.135,9.084-25.135,23.109c0,13.807,9.672,22.978,25.223,23.262c15.661,0.274,31.321,0.056,46.982,0.056
	c16.131,0.011,32.263,0.338,48.374-0.099c14.542-0.394,23.546-9.75,23.546-23.339C584.631,652.727,575.616,643.544,561.009,643.435z
	"/>
<path fill-rule="evenodd" clip-rule="evenodd" fill="#050505" d="M891.087,643.435c-31.32-0.187-219.007-0.164-250.329,0.011
	c-15.659,0.088-25.3,9.105-25.278,23c0.012,13.74,9.815,23.087,25.257,23.394c15.661,0.306,31.322,0.065,46.982,0.044
	c15.66-0.011,187.708,0.296,203.357-0.109c15.791-0.394,25.146-9.391,25.179-23.284
	C916.288,652.737,906.571,643.533,891.087,643.435z"/>
</svg>
